<?xml version="1.0" standalone="no"?>
<!DOCTYPE svg PUBLIC "-//W3C//DTD SVG 20010904//EN"
 "http://www.w3.org/TR/2001/REC-SVG-20010904/DTD/svg10.dtd">
<svg version="1.0" xmlns="http://www.w3.org/2000/svg"
 width="1200.000000pt" height="1004.000000pt" viewBox="0 0 1200.000000 1004.000000"
 preserveAspectRatio="xMidYMid meet">

<g transform="translate(0.000000,1004.000000) scale(0.100000,-0.100000)"
fill="#000000" stroke="none">
<path d="M1895 9580 c-439 -99 -759 -458 -805 -902 -13 -128 -13 -4562 0
-4702 44 -461 396 -837 855 -911 77 -13 376 -15 2050 -15 1886 0 1962 1 2000
19 74 34 125 111 125 188 -1 81 -69 171 -147 192 -26 8 -658 11 -1987 11
-1751 0 -1956 2 -2015 16 -218 53 -390 218 -458 439 -17 58 -18 157 -18 2410
0 2245 1 2353 18 2409 37 120 77 187 161 272 66 66 97 89 166 122 47 22 106
45 133 51 35 8 754 11 2680 11 2811 0 2673 2 2822 -46 79 -26 225 -100 286
-146 31 -24 281 -248 555 -498 274 -250 575 -525 669 -610 93 -85 206 -189
250 -230 44 -41 331 -304 637 -583 532 -485 559 -511 590 -575 31 -62 33 -73
33 -172 0 -97 -2 -110 -32 -172 -35 -74 -63 -104 -273 -294 -306 -275 -645
-587 -648 -595 -4 -9 258 -299 268 -299 4 0 182 161 396 358 215 196 407 370
427 385 91 69 193 227 243 377 27 79 29 96 29 235 0 175 -16 239 -93 390 -56
108 -97 151 -472 491 -386 349 -591 536 -805 734 -742 682 -1451 1325 -1524
1380 -150 114 -353 207 -549 252 l-97 23 -2695 1 c-2574 2 -2699 2 -2775 -16z"/>
<path d="M5250 8355 c-172 -29 -361 -105 -514 -206 -105 -70 -269 -228 -346
-336 -174 -245 -261 -542 -247 -842 l6 -126 -703 -705 c-607 -609 -704 -711
-714 -746 -15 -52 -17 -913 -2 -963 15 -54 51 -98 101 -126 l47 -25 471 0
c402 0 477 2 509 15 26 11 248 227 735 713 l697 697 153 -3 c181 -4 304 13
454 63 207 69 368 169 523 325 266 267 395 580 394 955 -1 296 -81 538 -261
786 -192 267 -514 466 -847 524 -107 18 -349 18 -456 0z m414 -410 c172 -32
357 -136 485 -270 116 -122 182 -239 227 -401 38 -137 41 -324 5 -459 -109
-418 -471 -704 -891 -705 -52 0 -133 7 -180 15 -68 12 -95 13 -135 4 -49 -11
-69 -30 -765 -725 l-715 -714 -283 0 -282 0 0 277 0 278 714 715 c820 823 750
734 722 914 -20 128 -20 205 -2 316 61 371 360 682 726 755 89 18 282 18 374
0z"/>
<path d="M5760 7550 c-194 -34 -233 -291 -58 -381 55 -28 140 -26 194 6 164
96 121 341 -66 375 -19 3 -51 3 -70 0z"/>
<path d="M8775 7140 c-319 -39 -577 -248 -688 -558 -29 -83 -31 -94 -31 -252
-1 -161 0 -167 31 -256 93 -267 295 -460 560 -536 64 -19 102 -23 218 -23 159
0 223 14 344 71 348 164 533 534 455 912 -59 288 -288 534 -574 615 -53 15
-209 38 -240 36 -8 -1 -42 -5 -75 -9z m205 -422 c190 -58 316 -250 289 -440
-13 -100 -46 -165 -118 -238 -90 -91 -148 -115 -286 -115 -81 0 -111 5 -158
23 -81 33 -168 116 -209 200 -31 63 -33 73 -33 177 0 100 3 116 28 170 85 183
298 281 487 223z"/>
<path d="M8505 4684 c-214 -22 -380 -56 -559 -115 -344 -114 -643 -304 -902
-571 -180 -186 -291 -344 -404 -573 -148 -300 -216 -574 -227 -910 -7 -213 6
-363 48 -556 89 -412 282 -774 571 -1075 364 -378 790 -598 1313 -680 135 -21
458 -24 595 -5 756 102 1397 559 1740 1241 87 172 154 377 197 595 25 129 27
160 27 395 1 240 -1 264 -28 405 -158 833 -743 1495 -1545 1749 -207 65 -389
95 -621 100 -91 2 -183 2 -205 0z m326 -414 c426 -42 802 -217 1112 -520 263
-255 424 -537 507 -883 38 -161 50 -262 50 -432 0 -170 -12 -271 -50 -430
-131 -545 -495 -992 -1005 -1236 -611 -293 -1357 -214 -1900 200 -90 69 -260
236 -330 326 -211 270 -337 569 -381 905 -19 150 -14 415 11 555 103 574 482
1077 1000 1330 316 155 652 217 986 185z"/>
<path d="M8595 3857 c-56 -22 -76 -38 -106 -85 l-29 -46 0 -676 0 -676 29 -45
c16 -24 222 -236 457 -471 470 -467 459 -458 564 -444 127 17 206 161 155 284
-11 25 -140 162 -405 427 l-390 390 -2 600 c-3 600 -3 600 -25 642 -48 89
-160 134 -248 100z"/>
</g>
</svg>
